<svg xmlns="http://www.w3.org/2000/svg" xmlns:xlink="http://www.w3.org/1999/xlink" width="1652" zoomAndPan="magnify" viewBox="0 0 1239 431.999984" height="576" preserveAspectRatio="xMidYMid meet" version="1.0"><defs><g/></defs><g fill="#004aad" fill-opacity="1"><g transform="translate(14.908423, 343.944048)"><g><path d="M 184.1875 -209.359375 L 86.6875 -209.359375 L 86.6875 -151.203125 L 170.890625 -151.203125 L 170.890625 -104.9375 L 86.6875 -104.9375 L 86.6875 0 L 33.15625 0 L 33.15625 -256.15625 L 184.1875 -256.15625 Z M 184.1875 -209.359375 "/></g></g><g transform="translate(211.325489, 343.944048)"><g><path d="M 33.15625 0 L 33.15625 -256.15625 L 86.328125 -256.15625 L 86.328125 0 Z M 33.15625 0 "/></g></g><g transform="translate(330.629355, 343.944048)"><g><path d="M 208.109375 -256.15625 L 261.125 -256.15625 L 261.125 0 L 199.609375 0 L 86.15625 -183.125 L 86.15625 0 L 33.15625 0 L 33.15625 -256.15625 L 93.953125 -256.15625 L 208.109375 -74.09375 Z M 208.109375 -256.15625 "/></g></g><g transform="translate(624.900409, 343.944048)"><g><path d="M 33.15625 0 L 33.15625 -256.15625 L 125.859375 -256.15625 C 146.304688 -256.15625 164.148438 -253.109375 179.390625 -247.015625 C 194.640625 -240.929688 207.34375 -232.21875 217.5 -220.875 C 227.664062 -209.53125 235.289062 -196.03125 240.375 -180.375 C 245.457031 -164.71875 248 -147.316406 248 -128.171875 C 248 -109.023438 245.457031 -91.59375 240.375 -75.875 C 235.289062 -60.15625 227.664062 -46.625 217.5 -35.28125 C 207.34375 -23.9375 194.640625 -15.21875 179.390625 -9.125 C 164.148438 -3.039062 146.304688 0 125.859375 0 Z M 86.328125 -46.96875 L 123.203125 -46.96875 C 146.835938 -46.96875 164.207031 -54.03125 175.3125 -68.15625 C 186.425781 -82.28125 191.984375 -102.285156 191.984375 -128.171875 C 191.984375 -154.046875 186.425781 -174.046875 175.3125 -188.171875 C 164.207031 -202.296875 146.835938 -209.359375 123.203125 -209.359375 L 86.328125 -209.359375 Z M 86.328125 -46.96875 "/></g></g></g><g fill="#004aad" fill-opacity="1"><g transform="translate(889.572417, 343.944048)"><g><path d="M 46.796875 -215.203125 C 43.015625 -215.203125 39.554688 -216.144531 36.421875 -218.03125 C 33.296875 -219.925781 30.785156 -222.4375 28.890625 -225.5625 C 27.003906 -228.695312 26.0625 -232.15625 26.0625 -235.9375 C 26.0625 -239.726562 27.003906 -243.1875 28.890625 -246.3125 C 30.785156 -249.445312 33.296875 -251.929688 36.421875 -253.765625 C 39.554688 -255.597656 43.015625 -256.515625 46.796875 -256.515625 C 50.578125 -256.515625 54.003906 -255.597656 57.078125 -253.765625 C 60.148438 -251.929688 62.628906 -249.445312 64.515625 -246.3125 C 66.410156 -243.1875 67.359375 -239.726562 67.359375 -235.9375 C 67.359375 -232.15625 66.410156 -228.695312 64.515625 -225.5625 C 62.628906 -222.4375 60.148438 -219.925781 57.078125 -218.03125 C 54.003906 -216.144531 50.578125 -215.203125 46.796875 -215.203125 Z M 31.203125 0 L 31.203125 -174.25 L 62.046875 -174.25 L 62.046875 0 Z M 31.203125 0 "/></g></g></g><g fill="#004aad" fill-opacity="1"><g transform="translate(982.817336, 343.944048)"><g><path d="M 86.859375 0 C 72.554688 0 61.238281 -4.132812 52.90625 -12.40625 C 44.582031 -20.675781 40.421875 -32.316406 40.421875 -47.328125 L 40.421875 -149.796875 L 4.78125 -149.796875 L 4.78125 -174.25 L 17.90625 -174.25 C 27 -174.25 33.40625 -176.285156 37.125 -180.359375 C 40.851562 -184.441406 42.71875 -191.269531 42.71875 -200.84375 L 42.71875 -232.40625 L 71.265625 -232.40625 L 71.265625 -174.25 L 111.328125 -174.25 L 111.328125 -149.796875 L 71.265625 -149.796875 L 71.265625 -50.515625 C 71.265625 -42.015625 73.535156 -35.546875 78.078125 -31.109375 C 82.628906 -26.679688 88.394531 -24.46875 95.375 -24.46875 L 111.328125 -24.46875 L 111.328125 0 Z M 86.859375 0 "/></g></g></g><g fill="#004aad" fill-opacity="1"><g transform="translate(1107.262097, 343.944048)"><g><path d="M 58.140625 3.546875 C 54.484375 3.546875 51.085938 2.628906 47.953125 0.796875 C 44.816406 -1.035156 42.300781 -3.515625 40.40625 -6.640625 C 38.519531 -9.773438 37.578125 -13.234375 37.578125 -17.015625 C 37.578125 -20.796875 38.519531 -24.222656 40.40625 -27.296875 C 42.300781 -30.367188 44.816406 -32.847656 47.953125 -34.734375 C 51.085938 -36.628906 54.484375 -37.578125 58.140625 -37.578125 C 61.921875 -37.578125 65.378906 -36.628906 68.515625 -34.734375 C 71.648438 -32.847656 74.160156 -30.367188 76.046875 -27.296875 C 77.941406 -24.222656 78.890625 -20.796875 78.890625 -17.015625 C 78.890625 -13.234375 77.941406 -9.773438 76.046875 -6.640625 C 74.160156 -3.515625 71.648438 -1.035156 68.515625 0.796875 C 65.378906 2.628906 61.921875 3.546875 58.140625 3.546875 Z M 58.140625 3.546875 "/></g></g></g></svg>