<svg xmlns="http://www.w3.org/2000/svg" xmlns:xlink="http://www.w3.org/1999/xlink" width="2500" zoomAndPan="magnify" viewBox="0 0 1874.88 1874.999927" height="2500" preserveAspectRatio="xMidYMid meet" version="1.0"><defs><g/></defs><path fill="#ff534f" d="M 60.5 1226.933594 L 1814.378906 1226.933594 L 1814.378906 1292.179688 L 60.5 1292.179688 Z M 60.5 1226.933594 " fill-opacity="1" fill-rule="nonzero"/><g fill="#ff534f" fill-opacity="1"><g transform="translate(60.500031, 1193.934997)"><g><path d="M 94.25 0 L 32.296875 0 L 89.96875 -472.25 L 151.921875 -472.25 Z M 94.25 0 "/></g></g></g><g fill="#ff534f" fill-opacity="1"><g transform="translate(236.151231, 1193.934997)"><g><path d="M 305.5 -399.09375 C 303.082031 -396.019531 300.773438 -393.65625 298.578125 -392 C 296.378906 -390.351562 293.742188 -389.53125 290.671875 -389.53125 C 286.929688 -389.53125 282.972656 -391.453125 278.796875 -395.296875 C 274.628906 -399.140625 269.300781 -403.3125 262.8125 -407.8125 C 256.332031 -412.320312 248.476562 -416.5 239.25 -420.34375 C 230.03125 -424.1875 218.5 -426.109375 204.65625 -426.109375 C 190.59375 -426.109375 178.066406 -423.910156 167.078125 -419.515625 C 156.097656 -415.128906 146.816406 -409.144531 139.234375 -401.5625 C 131.660156 -393.976562 125.894531 -385.132812 121.9375 -375.03125 C 117.976562 -364.925781 116 -354.050781 116 -342.40625 C 116 -330.976562 118.632812 -321.363281 123.90625 -313.5625 C 129.1875 -305.769531 136.109375 -299.070312 144.671875 -293.46875 C 153.242188 -287.863281 163.078125 -282.921875 174.171875 -278.640625 C 185.265625 -274.359375 196.519531 -269.960938 207.9375 -265.453125 C 219.363281 -260.953125 230.625 -255.953125 241.71875 -250.453125 C 252.820312 -244.960938 262.65625 -238.148438 271.21875 -230.015625 C 279.789062 -221.890625 286.710938 -212.113281 291.984375 -200.6875 C 297.253906 -189.269531 299.890625 -175.429688 299.890625 -159.171875 C 299.890625 -136.765625 296.046875 -115.617188 288.359375 -95.734375 C 280.671875 -75.847656 269.628906 -58.4375 255.234375 -43.5 C 240.847656 -28.5625 223.4375 -16.695312 203 -7.90625 C 182.570312 0.875 159.613281 5.265625 134.125 5.265625 C 106.007812 5.265625 80.910156 -0.28125 58.828125 -11.375 C 36.742188 -22.46875 18.5625 -37.460938 4.28125 -56.359375 L 26.03125 -85.6875 C 27.789062 -88.101562 29.988281 -90.078125 32.625 -91.609375 C 35.257812 -93.148438 38.113281 -93.921875 41.1875 -93.921875 C 45.363281 -93.921875 49.867188 -91.445312 54.703125 -86.5 C 59.535156 -81.5625 65.6875 -76.070312 73.15625 -70.03125 C 80.625 -63.988281 89.851562 -58.492188 100.84375 -53.546875 C 111.832031 -48.609375 125.5625 -46.140625 142.03125 -46.140625 C 157.195312 -46.140625 170.875 -48.554688 183.0625 -53.390625 C 195.257812 -58.222656 205.585938 -64.921875 214.046875 -73.484375 C 222.503906 -82.054688 229.039062 -92.328125 233.65625 -104.296875 C 238.269531 -116.273438 240.578125 -129.515625 240.578125 -144.015625 C 240.578125 -156.097656 237.9375 -166.148438 232.65625 -174.171875 C 227.382812 -182.191406 220.460938 -188.945312 211.890625 -194.4375 C 203.328125 -199.925781 193.550781 -204.703125 182.5625 -208.765625 C 171.582031 -212.835938 160.378906 -216.957031 148.953125 -221.125 C 137.535156 -225.300781 126.332031 -230.023438 115.34375 -235.296875 C 104.351562 -240.578125 94.570312 -247.28125 86 -255.40625 C 77.4375 -263.53125 70.519531 -273.523438 65.25 -285.390625 C 59.976562 -297.253906 57.34375 -311.863281 57.34375 -329.21875 C 57.34375 -348.550781 60.859375 -367.113281 67.890625 -384.90625 C 74.921875 -402.707031 85.023438 -418.421875 98.203125 -432.046875 C 111.390625 -445.671875 127.484375 -456.546875 146.484375 -464.671875 C 165.492188 -472.796875 186.859375 -476.859375 210.578125 -476.859375 C 234.753906 -476.859375 256.507812 -472.242188 275.84375 -463.015625 C 295.175781 -453.796875 311.101562 -441.164062 323.625 -425.125 Z M 305.5 -399.09375 "/></g></g></g><g fill="#ff534f" fill-opacity="1"><g transform="translate(570.97613, 1193.934997)"><g><path d="M 285.71875 -175 L 242.546875 -370.421875 C 241.453125 -376.347656 240.132812 -383.210938 238.59375 -391.015625 C 237.0625 -398.816406 235.742188 -407.222656 234.640625 -416.234375 C 231.347656 -407.003906 228.050781 -398.539062 224.75 -390.84375 C 221.457031 -383.15625 218.492188 -376.238281 215.859375 -370.09375 L 124.578125 -175 Z M 388.21875 0 L 340.765625 0 C 335.265625 0 330.976562 -1.367188 327.90625 -4.109375 C 324.832031 -6.859375 322.632812 -10.429688 321.3125 -14.828125 L 295.609375 -130.171875 L 103.484375 -130.171875 L 49.4375 -14.828125 C 47.457031 -10.867188 44.4375 -7.40625 40.375 -4.4375 C 36.3125 -1.476562 31.75 0 26.6875 0 L -21.421875 0 L 209.921875 -472.25 L 272.546875 -472.25 Z M 388.21875 0 "/></g></g></g><g fill="#ff534f" fill-opacity="1"><g transform="translate(986.870776, 1193.934997)"><g><path d="M 285.71875 -175 L 242.546875 -370.421875 C 241.453125 -376.347656 240.132812 -383.210938 238.59375 -391.015625 C 237.0625 -398.816406 235.742188 -407.222656 234.640625 -416.234375 C 231.347656 -407.003906 228.050781 -398.539062 224.75 -390.84375 C 221.457031 -383.15625 218.492188 -376.238281 215.859375 -370.09375 L 124.578125 -175 Z M 388.21875 0 L 340.765625 0 C 335.265625 0 330.976562 -1.367188 327.90625 -4.109375 C 324.832031 -6.859375 322.632812 -10.429688 321.3125 -14.828125 L 295.609375 -130.171875 L 103.484375 -130.171875 L 49.4375 -14.828125 C 47.457031 -10.867188 44.4375 -7.40625 40.375 -4.4375 C 36.3125 -1.476562 31.75 0 26.6875 0 L -21.421875 0 L 209.921875 -472.25 L 272.546875 -472.25 Z M 388.21875 0 "/></g></g></g><g fill="#ff534f" fill-opacity="1"><g transform="translate(1402.765377, 1193.934997)"><g><path d="M 223.109375 -47.78125 C 237.609375 -47.78125 250.457031 -48.988281 261.65625 -51.40625 C 272.863281 -53.820312 282.75 -56.785156 291.3125 -60.296875 C 299.882812 -63.816406 307.191406 -67.71875 313.234375 -72 C 319.273438 -76.289062 324.546875 -80.191406 329.046875 -83.703125 C 333.554688 -87.222656 337.347656 -90.191406 340.421875 -92.609375 C 343.503906 -95.023438 346.253906 -96.234375 348.671875 -96.234375 C 350.648438 -96.234375 352.296875 -95.847656 353.609375 -95.078125 C 354.929688 -94.304688 356.03125 -93.375 356.90625 -92.28125 L 378.328125 -65.578125 C 357.671875 -43.171875 333.882812 -25.757812 306.96875 -13.34375 C 280.0625 -0.9375 248.703125 5.265625 212.890625 5.265625 C 184.546875 5.265625 159.222656 0.210938 136.921875 -9.890625 C 114.628906 -19.992188 95.738281 -34.109375 80.25 -52.234375 C 64.757812 -70.359375 52.894531 -91.941406 44.65625 -116.984375 C 36.414062 -142.035156 32.296875 -169.609375 32.296875 -199.703125 C 32.296875 -240.796875 38.664062 -278.367188 51.40625 -312.421875 C 64.15625 -346.472656 81.675781 -375.742188 103.96875 -400.234375 C 126.269531 -424.734375 152.46875 -443.738281 182.5625 -457.25 C 212.664062 -470.769531 245.078125 -477.53125 279.796875 -477.53125 C 296.492188 -477.53125 311.648438 -476.097656 325.265625 -473.234375 C 338.890625 -470.378906 351.300781 -466.207031 362.5 -460.71875 C 373.707031 -455.226562 383.867188 -448.632812 392.984375 -440.9375 C 402.109375 -433.25 410.625 -424.679688 418.53125 -415.234375 L 397.4375 -389.53125 C 395.6875 -387.332031 393.710938 -385.519531 391.515625 -384.09375 C 389.316406 -382.664062 386.566406 -381.953125 383.265625 -381.953125 C 379.316406 -381.953125 375.144531 -384.148438 370.75 -388.546875 C 366.351562 -392.941406 360.363281 -397.71875 352.78125 -402.875 C 345.207031 -408.039062 335.429688 -412.820312 323.453125 -417.21875 C 311.484375 -421.613281 295.941406 -423.8125 276.828125 -423.8125 C 251.117188 -423.8125 227.222656 -418.703125 205.140625 -408.484375 C 183.066406 -398.265625 163.898438 -383.648438 147.640625 -364.640625 C 131.378906 -345.640625 118.578125 -322.628906 109.234375 -295.609375 C 99.898438 -268.585938 95.234375 -238.269531 95.234375 -204.65625 C 95.234375 -180.269531 98.421875 -158.410156 104.796875 -139.078125 C 111.171875 -119.742188 120.015625 -103.316406 131.328125 -89.796875 C 142.640625 -76.285156 156.09375 -65.90625 171.6875 -58.65625 C 187.289062 -51.40625 204.429688 -47.78125 223.109375 -47.78125 Z M 223.109375 -47.78125 "/></g></g></g></svg>