<svg xmlns="http://www.w3.org/2000/svg" xmlns:xlink="http://www.w3.org/1999/xlink" width="2500" zoomAndPan="magnify" viewBox="0 0 1874.88 1874.999927" height="2500" preserveAspectRatio="xMidYMid meet" version="1.0"><defs><g/></defs><g fill="#004aad" fill-opacity="1"><g transform="translate(0, 1126.16703)"><g><path d="M 286.738281 -325.925781 L 286.738281 -398.785156 L 51.605469 -398.785156 L 51.605469 0 L 134.953125 0 L 134.953125 -163.378906 L 266.039062 -163.378906 L 266.039062 -235.40625 L 134.953125 -235.40625 L 134.953125 -325.925781 Z M 286.738281 -325.925781 "/></g></g></g><g fill="#004aad" fill-opacity="1"><g transform="translate(305.745013, 1126.16703)"><g><path d="M 51.605469 0 L 134.398438 0 L 134.398438 -398.785156 L 51.605469 -398.785156 Z M 51.605469 0 "/></g></g></g><g fill="#004aad" fill-opacity="1"><g transform="translate(491.454806, 1126.16703)"><g><path d="M 323.996094 -398.785156 L 323.996094 -115.359375 L 146.265625 -398.785156 L 51.605469 -398.785156 L 51.605469 0 L 134.125 0 L 134.125 -285.082031 L 310.75 0 L 406.511719 0 L 406.511719 -398.785156 Z M 323.996094 -398.785156 "/></g></g></g><g fill="#004aad" fill-opacity="1"><g transform="translate(949.520443, 1126.16703)"><g><path d="M 51.605469 0 L 195.941406 0 C 323.167969 0 386.089844 -80.03125 386.089844 -199.53125 C 386.089844 -318.75 323.167969 -398.785156 195.941406 -398.785156 L 51.605469 -398.785156 Z M 134.398438 -73.132812 L 134.398438 -325.925781 L 191.804688 -325.925781 C 265.210938 -325.925781 298.882812 -280.113281 298.882812 -199.53125 C 298.882812 -118.945312 265.210938 -73.132812 191.804688 -73.132812 Z M 134.398438 -73.132812 "/></g></g></g><g fill="#004aad" fill-opacity="1"><g transform="translate(1361.554431, 1126.16703)"><g><path d="M 72.859375 -335.035156 C 90.242188 -335.035156 104.871094 -349.660156 104.871094 -367.324219 C 104.871094 -384.984375 90.242188 -399.335938 72.859375 -399.335938 C 55.195312 -399.335938 40.570312 -384.984375 40.570312 -367.324219 C 40.570312 -349.660156 55.195312 -335.035156 72.859375 -335.035156 Z M 48.570312 0 L 96.589844 0 L 96.589844 -271.285156 L 48.570312 -271.285156 Z M 48.570312 0 "/></g></g></g><g fill="#004aad" fill-opacity="1"><g transform="translate(1506.700532, 1126.16703)"><g><path d="M 135.226562 0 L 173.3125 0 L 173.3125 -38.085938 L 148.476562 -38.085938 C 126.671875 -38.085938 110.941406 -52.160156 110.941406 -78.652344 L 110.941406 -233.199219 L 173.3125 -233.199219 L 173.3125 -271.285156 L 110.941406 -271.285156 L 110.941406 -361.804688 L 66.511719 -361.804688 L 66.511719 -312.679688 C 66.511719 -282.875 56.300781 -271.285156 27.875 -271.285156 L 7.453125 -271.285156 L 7.453125 -233.199219 L 62.921875 -233.199219 L 62.921875 -73.683594 C 62.921875 -26.769531 90.796875 0 135.226562 0 Z M 135.226562 0 "/></g></g></g><g fill="#004aad" fill-opacity="1"><g transform="translate(1700.412626, 1126.16703)"><g><path d="M 90.519531 5.519531 C 107.90625 5.519531 122.808594 -8.832031 122.808594 -26.492188 C 122.808594 -43.878906 107.90625 -58.507812 90.519531 -58.507812 C 73.410156 -58.507812 58.507812 -43.878906 58.507812 -26.492188 C 58.507812 -8.832031 73.410156 5.519531 90.519531 5.519531 Z M 90.519531 5.519531 "/></g></g></g></svg>