<svg xmlns="http://www.w3.org/2000/svg" xmlns:xlink="http://www.w3.org/1999/xlink" width="2500" zoomAndPan="magnify" viewBox="0 0 1874.88 1874.999927" height="2500" preserveAspectRatio="xMidYMid meet" version="1.0"><defs><g/></defs><path fill="#f9aa00" d="M 55.554688 1226.933594 L 1819.324219 1226.933594 L 1819.324219 1292.179688 L 55.554688 1292.179688 Z M 55.554688 1226.933594 " fill-opacity="1" fill-rule="nonzero"/><g fill="#f9aa00" fill-opacity="1"><g transform="translate(55.555035, 1193.934997)"><g><path d="M 377.015625 -420.515625 L 237.9375 -420.515625 L 185.875 0 L 124.578125 0 L 175.984375 -420.515625 L 36.25 -420.515625 L 42.1875 -472.25 L 383.265625 -472.25 Z M 377.015625 -420.515625 "/></g></g></g><g fill="#f9aa00" fill-opacity="1"><g transform="translate(415.425944, 1193.934997)"><g><path d="M 146 -421.828125 L 126.546875 -262.65625 L 293.640625 -262.65625 L 287.375 -214.203125 L 120.609375 -214.203125 L 100.515625 -50.09375 L 307.796875 -50.09375 L 301.546875 0 L 32.296875 0 L 90.296875 -472.25 L 359.21875 -472.25 L 352.953125 -421.828125 Z M 146 -421.828125 "/></g></g></g><g fill="#f9aa00" fill-opacity="1"><g transform="translate(770.023941, 1193.934997)"><g><path d="M 305.5 -399.09375 C 303.082031 -396.019531 300.773438 -393.65625 298.578125 -392 C 296.378906 -390.351562 293.742188 -389.53125 290.671875 -389.53125 C 286.929688 -389.53125 282.972656 -391.453125 278.796875 -395.296875 C 274.628906 -399.140625 269.300781 -403.3125 262.8125 -407.8125 C 256.332031 -412.320312 248.476562 -416.5 239.25 -420.34375 C 230.03125 -424.1875 218.5 -426.109375 204.65625 -426.109375 C 190.59375 -426.109375 178.066406 -423.910156 167.078125 -419.515625 C 156.097656 -415.128906 146.816406 -409.144531 139.234375 -401.5625 C 131.660156 -393.976562 125.894531 -385.132812 121.9375 -375.03125 C 117.976562 -364.925781 116 -354.050781 116 -342.40625 C 116 -330.976562 118.632812 -321.363281 123.90625 -313.5625 C 129.1875 -305.769531 136.109375 -299.070312 144.671875 -293.46875 C 153.242188 -287.863281 163.078125 -282.921875 174.171875 -278.640625 C 185.265625 -274.359375 196.519531 -269.960938 207.9375 -265.453125 C 219.363281 -260.953125 230.625 -255.953125 241.71875 -250.453125 C 252.820312 -244.960938 262.65625 -238.148438 271.21875 -230.015625 C 279.789062 -221.890625 286.710938 -212.113281 291.984375 -200.6875 C 297.253906 -189.269531 299.890625 -175.429688 299.890625 -159.171875 C 299.890625 -136.765625 296.046875 -115.617188 288.359375 -95.734375 C 280.671875 -75.847656 269.628906 -58.4375 255.234375 -43.5 C 240.847656 -28.5625 223.4375 -16.695312 203 -7.90625 C 182.570312 0.875 159.613281 5.265625 134.125 5.265625 C 106.007812 5.265625 80.910156 -0.28125 58.828125 -11.375 C 36.742188 -22.46875 18.5625 -37.460938 4.28125 -56.359375 L 26.03125 -85.6875 C 27.789062 -88.101562 29.988281 -90.078125 32.625 -91.609375 C 35.257812 -93.148438 38.113281 -93.921875 41.1875 -93.921875 C 45.363281 -93.921875 49.867188 -91.445312 54.703125 -86.5 C 59.535156 -81.5625 65.6875 -76.070312 73.15625 -70.03125 C 80.625 -63.988281 89.851562 -58.492188 100.84375 -53.546875 C 111.832031 -48.609375 125.5625 -46.140625 142.03125 -46.140625 C 157.195312 -46.140625 170.875 -48.554688 183.0625 -53.390625 C 195.257812 -58.222656 205.585938 -64.921875 214.046875 -73.484375 C 222.503906 -82.054688 229.039062 -92.328125 233.65625 -104.296875 C 238.269531 -116.273438 240.578125 -129.515625 240.578125 -144.015625 C 240.578125 -156.097656 237.9375 -166.148438 232.65625 -174.171875 C 227.382812 -182.191406 220.460938 -188.945312 211.890625 -194.4375 C 203.328125 -199.925781 193.550781 -204.703125 182.5625 -208.765625 C 171.582031 -212.835938 160.378906 -216.957031 148.953125 -221.125 C 137.535156 -225.300781 126.332031 -230.023438 115.34375 -235.296875 C 104.351562 -240.578125 94.570312 -247.28125 86 -255.40625 C 77.4375 -263.53125 70.519531 -273.523438 65.25 -285.390625 C 59.976562 -297.253906 57.34375 -311.863281 57.34375 -329.21875 C 57.34375 -348.550781 60.859375 -367.113281 67.890625 -384.90625 C 74.921875 -402.707031 85.023438 -418.421875 98.203125 -432.046875 C 111.390625 -445.671875 127.484375 -456.546875 146.484375 -464.671875 C 165.492188 -472.796875 186.859375 -476.859375 210.578125 -476.859375 C 234.753906 -476.859375 256.507812 -472.242188 275.84375 -463.015625 C 295.175781 -453.796875 311.101562 -441.164062 323.625 -425.125 Z M 305.5 -399.09375 "/></g></g></g><g fill="#f9aa00" fill-opacity="1"><g transform="translate(1104.848885, 1193.934997)"><g><path d="M 377.015625 -420.515625 L 237.9375 -420.515625 L 185.875 0 L 124.578125 0 L 175.984375 -420.515625 L 36.25 -420.515625 L 42.1875 -472.25 L 383.265625 -472.25 Z M 377.015625 -420.515625 "/></g></g></g><g fill="#f9aa00" fill-opacity="1"><g transform="translate(1464.719816, 1193.934997)"><g><path d="M 146 -421.828125 L 126.546875 -262.65625 L 293.640625 -262.65625 L 287.375 -214.203125 L 120.609375 -214.203125 L 100.515625 -50.09375 L 307.796875 -50.09375 L 301.546875 0 L 32.296875 0 L 90.296875 -472.25 L 359.21875 -472.25 L 352.953125 -421.828125 Z M 146 -421.828125 "/></g></g></g></svg>